<mxfile host="app.diagrams.net" modified="2024-04-16T08:07:40.035Z" agent="Mozilla/5.0 (Windows NT 10.0; Win64; x64) AppleWebKit/537.36 (KHTML, like Gecko) Chrome/118.0.0.0 Safari/537.36 Edg/118.0.2088.76" version="24.2.2" etag="fOudiQ7rfmWOGUqqA1aY" type="github">
  <diagram name="第 1 页" id="Gcb4yedmJfE1hY8s5Ao0">
    <mxGraphModel>
      <root>
        <mxCell id="0" />
        <mxCell id="1" parent="0" />
      </root>
    </mxGraphModel>
  </diagram>
</mxfile>
